<svg width="1024" height="768" viewBox="0 0 1024 768" fill="none" xmlns="http://www.w3.org/2000/svg">
<rect width="1024" height="768" fill="white"/>
<rect x="55.5" y="280.5" width="913" height="181" fill="#FFEEEE" stroke="#D2333C" stroke-width="3"/>
<rect x="55.5" y="62.5" width="913" height="181" fill="#F5F5F5" stroke="black" stroke-width="3"/>
<rect x="55.5" y="503.5" width="913" height="181" fill="#FFEEEE" stroke="#D2333C" stroke-width="3"/>
<rect x="78" y="141" width="414" height="85" fill="#E8E8E8" stroke="#838383" stroke-width="2"/>
<rect x="78" y="347" width="868" height="85" fill="#E8E8E8" stroke="#838383" stroke-width="2"/>
<rect x="78" y="573" width="868" height="85" fill="#E8E8E8" stroke="#838383" stroke-width="2"/>
<rect x="532" y="141" width="414" height="85" fill="#E8E8E8" stroke="#838383" stroke-width="2"/>
<path d="M109.24 195.6V169.88C109.24 168.36 109.16 167.36 108.96 166.16H112.28C112.08 167.32 112 168.32 112 169.88V195.6H123.8V177.32C123.8 175.64 123.72 174.76 123.56 173.6H126.72C126.56 174.96 126.48 176.04 126.48 177.36V197.28C126.48 198.88 126.56 200.08 126.76 201.52H123.8V198.16H98.24V201.52H95.28C95.48 199.84 95.56 198.92 95.56 197.48V177.52C95.56 176 95.48 174.76 95.28 173.6H98.44C98.28 174.72 98.24 175.84 98.24 177.48V195.6H109.24ZM167 201.44H164.2V199H137.84V201.44H135.04C135.2 200 135.28 198.64 135.28 196.8V171.96C135.28 170.48 135.2 169.24 135.08 167.96C136.6 168.12 137.88 168.16 139.68 168.16H162.4C164.16 168.16 165.44 168.12 166.96 167.96C166.8 169.2 166.76 170.36 166.76 171.96V196.8C166.76 198.64 166.84 200.08 167 201.44ZM137.84 170.48V181.96H149.32V170.48H137.84ZM151.84 170.48V181.96H164.2V170.48H151.84ZM137.84 184.24V196.68H149.32V184.24H137.84ZM151.84 184.24V196.68H164.2V184.24H151.84Z" fill="#7B7B7B"/>
<path d="M97.4 404.76H93.84C94.04 403.32 94.12 402.24 94.12 400.24V378.88C94.12 376.88 94.04 375.84 93.84 374.36H97.4C97.16 375.84 97.08 376.88 97.08 378.92V385.68C97.08 386.32 97.08 386.64 96.96 387.68C97.76 386.36 98.2 385.76 99.16 384.96C100.88 383.48 102.72 382.8 105.16 382.8C109.84 382.8 112.64 385.56 112.64 390.24V400.28C112.64 402.12 112.72 403.28 112.92 404.76H109.32C109.52 403.44 109.6 402.24 109.6 400.24V390.8C109.6 387.32 107.88 385.44 104.76 385.44C102.52 385.44 100.68 386.4 99.12 388.36C98 389.8 97.48 390.88 97.12 392.56V400.24C97.12 402 97.2 403.2 97.4 404.76ZM132.768 404.76V401.92C131.208 403.32 130.448 403.84 129.088 404.36C127.728 404.88 126.288 405.16 124.928 405.16C120.528 405.16 117.848 402.88 117.848 399.08C117.848 395.88 119.848 393.56 123.568 392.52C125.928 391.84 127.848 391.6 132.768 391.48V389.16C132.768 386.44 131.048 385.04 127.728 385.04C125.528 385.04 123.888 385.6 122.768 386.76C122.248 387.32 121.928 387.88 121.528 389.08L118.408 388.4C119.128 386.56 119.648 385.72 120.648 384.84C122.288 383.32 124.688 382.56 127.688 382.56C132.968 382.56 135.688 384.8 135.688 389.12V400.36C135.688 402.16 135.768 403.16 136.008 404.76H132.768ZM132.768 396.44V393.84C128.008 393.96 125.728 394.24 123.928 395C121.888 395.84 120.888 397.2 120.888 399.12C120.888 401.32 122.528 402.72 125.128 402.72C127.447 402.72 129.968 401.6 131.528 399.88C132.448 398.88 132.768 398.04 132.768 396.44ZM145.135 404.76H141.535C141.775 403.24 141.855 402.16 141.855 400.24V387.72C141.855 385.92 141.775 384.8 141.535 383.2H144.855V385.92C144.855 386.4 144.855 386.72 144.735 387.64C146.615 384.36 149.215 382.8 152.815 382.8C155.695 382.8 157.935 383.84 159.215 385.8C159.975 386.96 160.335 388.44 160.335 390.4V400.28C160.335 402.32 160.415 403.44 160.615 404.76H157.015C157.215 403.2 157.295 402 157.295 400.24V390.92C157.295 387.32 155.575 385.4 152.415 385.4C150.175 385.4 148.375 386.4 146.695 388.56C145.655 389.92 145.175 390.92 144.855 392.52V400.24C144.855 402 144.935 403.2 145.135 404.76ZM180.502 404.76V401.92C178.942 403.32 178.182 403.84 176.822 404.36C175.462 404.88 174.022 405.16 172.662 405.16C168.262 405.16 165.582 402.88 165.582 399.08C165.582 395.88 167.582 393.56 171.302 392.52C173.662 391.84 175.582 391.6 180.502 391.48V389.16C180.502 386.44 178.782 385.04 175.462 385.04C173.262 385.04 171.622 385.6 170.502 386.76C169.982 387.32 169.662 387.88 169.262 389.08L166.142 388.4C166.862 386.56 167.382 385.72 168.382 384.84C170.022 383.32 172.422 382.56 175.422 382.56C180.702 382.56 183.422 384.8 183.422 389.12V400.36C183.422 402.16 183.502 403.16 183.742 404.76H180.502ZM180.502 396.44V393.84C175.742 393.96 173.462 394.24 171.662 395C169.622 395.84 168.622 397.2 168.622 399.12C168.622 401.32 170.262 402.72 172.862 402.72C175.182 402.72 177.702 401.6 179.262 399.88C180.182 398.88 180.502 398.04 180.502 396.44ZM189.27 374.36H192.83C192.63 375.8 192.55 376.84 192.55 378.88V393.36L199.79 386.36C201.51 384.72 202.07 384.04 202.63 383.2H207.39C206.83 383.72 206.83 383.72 205.75 384.68C205.35 385.04 204.87 385.48 204.31 386.04C203.95 386.36 203.75 386.6 203.67 386.68L198.11 391.84L204.87 400.56C207.27 403.64 207.47 403.88 208.35 404.76H203.79C203.35 403.8 203.27 403.64 201.27 400.96L195.95 393.68L192.55 396.92V400.28C192.55 402.08 192.63 403.36 192.83 404.76H189.27C189.47 403.32 189.55 402.16 189.55 400.24V378.88C189.55 376.88 189.47 375.8 189.27 374.36ZM221.998 405.28C215.438 405.28 211.278 400.92 211.278 394C211.278 387.08 215.438 382.68 221.958 382.68C228.478 382.68 232.598 387.08 232.598 393.96C232.598 400.8 228.438 405.28 221.998 405.28ZM222.038 385.2C217.278 385.2 214.358 388.52 214.358 393.92C214.358 399.36 217.278 402.68 221.958 402.68C226.638 402.68 229.518 399.36 229.518 393.96C229.518 388.56 226.638 385.2 222.038 385.2ZM244.358 404.12L237.038 387.88C235.238 383.92 235.238 383.92 234.838 383.2H238.758C238.958 384.32 239.478 385.92 240.118 387.44L245.918 400.88L251.078 387.44C251.878 385.4 252.238 384.32 252.398 383.2H256.118C255.878 383.8 255.198 385.36 254.158 387.88L245.198 409.72C244.158 412.28 242.398 413.44 239.558 413.44C238.678 413.44 237.798 413.32 236.278 413L237.118 410.04C238.238 410.56 238.798 410.72 239.558 410.72C240.918 410.72 241.878 410 242.518 408.52L244.358 404.12ZM273.666 404.76V401.92C272.106 403.32 271.346 403.84 269.986 404.36C268.626 404.88 267.186 405.16 265.826 405.16C261.426 405.16 258.746 402.88 258.746 399.08C258.746 395.88 260.746 393.56 264.466 392.52C266.826 391.84 268.746 391.6 273.666 391.48V389.16C273.666 386.44 271.946 385.04 268.626 385.04C266.426 385.04 264.786 385.6 263.666 386.76C263.146 387.32 262.826 387.88 262.426 389.08L259.306 388.4C260.026 386.56 260.546 385.72 261.546 384.84C263.186 383.32 265.586 382.56 268.586 382.56C273.866 382.56 276.586 384.8 276.586 389.12V400.36C276.586 402.16 276.666 403.16 276.906 404.76H273.666ZM273.666 396.44V393.84C268.906 393.96 266.626 394.24 264.826 395C262.786 395.84 261.786 397.2 261.786 399.12C261.786 401.32 263.426 402.72 266.026 402.72C268.346 402.72 270.866 401.6 272.426 399.88C273.346 398.88 273.666 398.04 273.666 396.44ZM285.954 404.76H282.434C282.634 403.32 282.714 402.12 282.714 400.24V387.72C282.714 385.72 282.634 384.64 282.434 383.2H285.674V385.4C285.674 385.6 285.634 386.08 285.594 386.84C285.954 386.16 286.314 385.68 287.114 384.84C288.474 383.48 290.434 382.76 292.754 382.76C295.034 382.76 296.714 383.44 297.914 384.8C298.514 385.44 298.754 385.92 299.154 387.12C301.034 384.04 303.194 382.76 306.554 382.76C309.194 382.76 311.194 383.6 312.394 385.2C313.354 386.48 313.754 388.04 313.754 390.4V400.28C313.754 402.28 313.834 403.36 314.034 404.76H310.434C310.674 403.28 310.714 402.36 310.714 400.24V390.8C310.714 387 309.314 385.36 306.114 385.36C304.114 385.36 302.234 386.44 301.074 388.28C300.314 389.44 299.754 391.2 299.754 392.4V400.28C299.754 402.28 299.834 403.4 300.034 404.76H296.434C296.634 403.32 296.714 402.28 296.714 400.24V390.8C296.714 387.28 295.114 385.36 292.234 385.36C290.154 385.36 288.234 386.48 286.994 388.4C286.274 389.48 285.674 391.36 285.674 392.4V400.24C285.674 402.08 285.754 403.16 285.954 404.76ZM333.9 404.76V401.92C332.34 403.32 331.58 403.84 330.22 404.36C328.86 404.88 327.42 405.16 326.06 405.16C321.66 405.16 318.98 402.88 318.98 399.08C318.98 395.88 320.98 393.56 324.7 392.52C327.06 391.84 328.98 391.6 333.9 391.48V389.16C333.9 386.44 332.18 385.04 328.86 385.04C326.66 385.04 325.02 385.6 323.9 386.76C323.38 387.32 323.06 387.88 322.66 389.08L319.54 388.4C320.26 386.56 320.78 385.72 321.78 384.84C323.42 383.32 325.82 382.56 328.82 382.56C334.1 382.56 336.82 384.8 336.82 389.12V400.36C336.82 402.16 336.9 403.16 337.14 404.76H333.9ZM333.9 396.44V393.84C329.14 393.96 326.86 394.24 325.06 395C323.02 395.84 322.02 397.2 322.02 399.12C322.02 401.32 323.66 402.72 326.26 402.72C328.58 402.72 331.1 401.6 332.66 399.88C333.58 398.88 333.9 398.04 333.9 396.44ZM359.588 404.76V402.8C359.588 402.24 359.628 401.52 359.708 400.84C357.828 403.76 355.228 405.16 351.588 405.16C345.428 405.16 341.668 400.92 341.668 393.96C341.668 387.12 345.508 382.76 351.508 382.76C355.148 382.76 357.948 384.24 359.708 387L359.668 386.4C359.548 385.56 359.548 385.2 359.548 384.28V378.92C359.548 377.04 359.468 375.88 359.268 374.36H362.788C362.588 375.96 362.508 377.12 362.508 378.88V400.16C362.508 402.16 362.588 403.2 362.788 404.76H359.588ZM351.828 385.36C347.468 385.36 344.828 388.56 344.828 393.88C344.828 396.52 345.428 398.8 346.468 400.12C347.708 401.68 349.588 402.52 351.828 402.52C356.508 402.52 359.508 399.12 359.508 393.84C359.508 391.2 358.708 388.88 357.268 387.48C355.868 386.12 353.948 385.36 351.828 385.36ZM382.768 404.76V401.92C381.208 403.32 380.448 403.84 379.088 404.36C377.728 404.88 376.288 405.16 374.928 405.16C370.528 405.16 367.848 402.88 367.848 399.08C367.848 395.88 369.848 393.56 373.568 392.52C375.928 391.84 377.848 391.6 382.768 391.48V389.16C382.768 386.44 381.048 385.04 377.728 385.04C375.528 385.04 373.888 385.6 372.768 386.76C372.248 387.32 371.928 387.88 371.528 389.08L368.408 388.4C369.128 386.56 369.648 385.72 370.648 384.84C372.288 383.32 374.688 382.56 377.688 382.56C382.968 382.56 385.688 384.8 385.688 389.12V400.36C385.688 402.16 385.768 403.16 386.008 404.76H382.768ZM382.768 396.44V393.84C378.008 393.96 375.728 394.24 373.928 395C371.888 395.84 370.888 397.2 370.888 399.12C370.888 401.32 372.528 402.72 375.128 402.72C377.447 402.72 379.968 401.6 381.528 399.88C382.448 398.88 382.768 398.04 382.768 396.44ZM417.495 399.8L419.015 401.96C416.935 403.24 415.935 403.72 414.135 404.28C411.855 404.96 409.375 405.36 407.015 405.36C397.415 405.36 390.815 399.08 390.815 389.96C390.815 380.56 398.055 373.76 408.055 373.76C416.895 373.76 422.775 379.04 422.775 386.96C422.775 391.64 420.735 395.56 417.175 397.76C415.655 398.68 413.855 399.24 412.455 399.24C410.655 399.24 409.495 398.2 409.495 396.56C409.495 396.44 409.495 396.28 409.535 396.08C408.695 397.16 408.215 397.6 407.375 398.04C406.375 398.56 405.175 398.84 404.015 398.84C400.655 398.84 398.455 396.24 398.455 392.24C398.455 389.4 399.455 386.2 401.055 383.88C402.895 381.2 405.615 379.64 408.415 379.64C410.695 379.64 412.175 380.6 412.655 382.32L413.215 380.24H415.855C415.455 381.24 415.215 382.04 414.695 384L411.815 394.96C411.695 395.28 411.655 395.6 411.655 395.88C411.655 396.68 412.015 397.04 412.895 397.04C413.815 397.04 415.175 396.48 416.295 395.68C418.855 393.76 420.335 390.64 420.335 387.04C420.335 380.44 415.375 375.96 408.095 375.96C399.695 375.96 393.375 382 393.375 390C393.375 397.72 399.055 403.08 407.175 403.08C409.455 403.08 411.855 402.64 413.935 401.84C415.335 401.32 416.055 400.92 417.495 399.8ZM408.455 381.8C406.495 381.8 404.695 382.88 403.415 384.84C402.015 387 401.095 389.96 401.095 392.4C401.095 395.08 402.255 396.6 404.295 396.6C406.215 396.6 408.215 395.08 409.495 392.72C410.655 390.56 411.415 387.64 411.415 385.28C411.415 383 410.415 381.8 408.455 381.8ZM427.666 409.36L430.226 407.56C430.786 408.32 431.026 408.6 431.506 408.96C433.026 410.28 434.706 410.84 436.866 410.84C440.346 410.84 442.786 409.32 443.826 406.44C444.226 405.28 444.386 403.84 444.546 400.52C443.946 401.6 443.506 402.12 442.826 402.72C441.306 404.08 439.066 404.8 436.626 404.8C430.586 404.8 426.746 400.6 426.746 393.92C426.746 387.12 430.666 382.8 436.866 382.8C440.346 382.8 442.906 384.2 444.546 387C444.506 386.32 444.466 386 444.466 385.48V383.2H447.666C447.466 384.76 447.386 385.8 447.386 387.68V402C447.386 405.92 446.666 408.44 445.066 410.32C443.386 412.28 440.386 413.36 436.746 413.36C432.786 413.36 430.306 412.24 427.666 409.36ZM429.866 393.92C429.866 399.12 432.506 402.28 436.786 402.28C441.346 402.28 444.386 398.8 444.386 393.6C444.386 388.56 441.506 385.32 437.026 385.32C432.586 385.32 429.866 388.6 429.866 393.92ZM456.891 404.76H453.371C453.571 403.32 453.651 402.12 453.651 400.24V387.72C453.651 385.72 453.571 384.64 453.371 383.2H456.611V385.4C456.611 385.6 456.571 386.08 456.531 386.84C456.891 386.16 457.251 385.68 458.051 384.84C459.411 383.48 461.371 382.76 463.691 382.76C465.971 382.76 467.651 383.44 468.851 384.8C469.451 385.44 469.691 385.92 470.091 387.12C471.971 384.04 474.131 382.76 477.491 382.76C480.131 382.76 482.131 383.6 483.331 385.2C484.291 386.48 484.691 388.04 484.691 390.4V400.28C484.691 402.28 484.771 403.36 484.971 404.76H481.371C481.611 403.28 481.651 402.36 481.651 400.24V390.8C481.651 387 480.251 385.36 477.051 385.36C475.051 385.36 473.171 386.44 472.011 388.28C471.251 389.44 470.691 391.2 470.691 392.4V400.28C470.691 402.28 470.771 403.4 470.971 404.76H467.371C467.571 403.32 467.651 402.28 467.651 400.24V390.8C467.651 387.28 466.051 385.36 463.171 385.36C461.091 385.36 459.171 386.48 457.931 388.4C457.211 389.48 456.611 391.36 456.611 392.4V400.24C456.611 402.08 456.691 403.16 456.891 404.76ZM504.838 404.76V401.92C503.278 403.32 502.518 403.84 501.158 404.36C499.798 404.88 498.358 405.16 496.998 405.16C492.598 405.16 489.918 402.88 489.918 399.08C489.918 395.88 491.918 393.56 495.638 392.52C497.998 391.84 499.918 391.6 504.838 391.48V389.16C504.838 386.44 503.118 385.04 499.798 385.04C497.598 385.04 495.958 385.6 494.838 386.76C494.318 387.32 493.998 387.88 493.598 389.08L490.478 388.4C491.198 386.56 491.718 385.72 492.718 384.84C494.358 383.32 496.758 382.56 499.758 382.56C505.038 382.56 507.758 384.8 507.758 389.12V400.36C507.758 402.16 507.838 403.16 508.078 404.76H504.838ZM504.838 396.44V393.84C500.078 393.96 497.798 394.24 495.998 395C493.958 395.84 492.958 397.2 492.958 399.12C492.958 401.32 494.598 402.72 497.198 402.72C499.518 402.72 502.038 401.6 503.598 399.88C504.518 398.88 504.838 398.04 504.838 396.44ZM513.566 374.36H517.446V377.92H513.566V374.36ZM513.686 383.2H517.286C517.086 384.6 517.006 385.72 517.006 387.72V400.24C517.006 402.08 517.086 403.2 517.286 404.76H513.686C513.886 403.04 513.966 401.92 513.966 400.24V387.72C513.966 385.8 513.886 384.6 513.686 383.2ZM523.137 374.36H526.737C526.537 375.8 526.457 376.88 526.457 378.88V400.28C526.457 402.08 526.537 403.16 526.737 404.76H523.137C523.337 403.32 523.417 402.08 523.417 400.28V378.84C523.417 376.88 523.337 375.8 523.137 374.36ZM532.394 400.8H536.354V404.76H532.394V400.8ZM560.283 388.88L557.363 389.8C556.203 386.68 554.283 385.2 551.323 385.2C546.923 385.2 544.123 388.64 544.123 394C544.123 399.28 547.003 402.64 551.483 402.64C553.763 402.64 555.643 401.72 556.683 400.08C557.083 399.48 557.283 399 557.563 398.04L560.563 398.84C560.003 400.28 559.603 401.04 558.923 401.92C557.163 404.12 554.603 405.28 551.363 405.28C545.083 405.28 541.043 400.92 541.043 394.08C541.043 387.16 545.043 382.64 551.163 382.64C554.483 382.64 557.163 383.92 558.883 386.32C559.443 387.08 559.803 387.72 560.283 388.88ZM574.888 405.28C568.328 405.28 564.168 400.92 564.168 394C564.168 387.08 568.328 382.68 574.848 382.68C581.368 382.68 585.488 387.08 585.488 393.96C585.488 400.8 581.328 405.28 574.888 405.28ZM574.928 385.2C570.168 385.2 567.248 388.52 567.248 393.92C567.248 399.36 570.168 402.68 574.848 402.68C579.528 402.68 582.408 399.36 582.408 393.96C582.408 388.56 579.528 385.2 574.928 385.2ZM593.688 404.76H590.168C590.368 403.32 590.448 402.12 590.448 400.24V387.72C590.448 385.72 590.368 384.64 590.168 383.2H593.408V385.4C593.408 385.6 593.368 386.08 593.328 386.84C593.688 386.16 594.048 385.68 594.848 384.84C596.208 383.48 598.168 382.76 600.488 382.76C602.768 382.76 604.448 383.44 605.648 384.8C606.248 385.44 606.488 385.92 606.888 387.12C608.768 384.04 610.928 382.76 614.288 382.76C616.928 382.76 618.928 383.6 620.128 385.2C621.088 386.48 621.488 388.04 621.488 390.4V400.28C621.488 402.28 621.568 403.36 621.768 404.76H618.168C618.408 403.28 618.448 402.36 618.448 400.24V390.8C618.448 387 617.048 385.36 613.848 385.36C611.848 385.36 609.968 386.44 608.808 388.28C608.048 389.44 607.488 391.2 607.488 392.4V400.28C607.488 402.28 607.568 403.4 607.768 404.76H604.168C604.368 403.32 604.448 402.28 604.448 400.24V390.8C604.448 387.28 602.848 385.36 599.968 385.36C597.888 385.36 595.968 386.48 594.728 388.4C594.008 389.48 593.408 391.36 593.408 392.4V400.24C593.408 402.08 593.488 403.16 593.688 404.76Z" fill="#7B7B7B"/>
<path d="M103.2 601.92L106.56 602.52C106.4 602.96 106.36 603.2 106.04 605.24C104.36 616.64 101.12 624.32 95.48 630.2C94.48 629.12 94.04 628.76 92.92 628.12C95.4 625.8 97.04 623.56 98.72 620.2C100.68 616.24 102.08 611.56 102.84 606.32C103.08 604.72 103.24 603.28 103.24 602.56C103.24 602.44 103.24 602.2 103.2 601.92ZM114.68 602.52L117.64 601.92C117.64 603.64 118.52 608.24 119.48 611.52C121.4 618.56 124.68 624.48 128.56 628.04C127.48 628.72 127 629.16 126.08 630.28C120.76 624.64 116.76 615.4 115.2 605.16C115 603.76 114.84 603.04 114.68 602.52ZM125.44 598.84C127.96 598.84 129.96 600.84 129.96 603.36C129.96 605.84 127.92 607.88 125.44 607.88C122.92 607.88 120.88 605.84 120.88 603.36C120.88 600.88 122.92 598.84 125.44 598.84ZM125.44 600.52C123.84 600.52 122.56 601.8 122.56 603.36C122.56 604.92 123.84 606.2 125.44 606.2C127 606.2 128.28 604.92 128.28 603.36C128.28 601.8 127 600.52 125.44 600.52ZM167.04 628.84L164.76 631.36C161.6 627.32 157.08 622.96 151.96 619C149.16 622.2 147.2 624.04 144.32 626.16C141.56 628.16 139.44 629.48 136.48 630.96C135.84 629.76 135.52 629.32 134.52 628.32C137.6 627.08 139.56 626 142.64 623.72C149.04 619 154 612.68 156.92 605.68C157 605.44 157.04 605.4 157.12 605.2C157.2 605.08 157.2 605.04 157.24 604.92C156.88 604.96 156.76 604.96 156.28 604.96L142.92 605.16C141.12 605.2 139.96 605.28 138.8 605.48L138.72 602.24C139.8 602.4 140.52 602.44 141.88 602.44C142 602.44 142.36 602.44 142.92 602.44L157.2 602.28C158.6 602.24 159.08 602.2 159.76 601.96L161.44 603.68C161.04 604.16 160.76 604.64 160.32 605.64C158.08 610.6 156.2 613.76 153.72 616.84C158.96 620.84 162.48 624 167.04 628.84ZM179.198 615.16H175.878C175.998 614.24 176.038 613.6 176.038 611.92V605.08C175.998 603.52 175.998 603.16 175.918 602.08C176.798 602.16 178.038 602.24 178.998 602.24H199.678C201.318 602.24 201.718 602.2 202.518 601.92L204.158 603.48C203.798 604.12 203.718 604.44 203.558 605.72C202.358 614.88 200.358 619.88 196.038 624.36C192.998 627.52 189.238 629.92 184.598 631.68C183.958 630.4 183.678 630 182.678 629C189.158 626.76 193.438 623.72 196.278 619.24C198.518 615.76 199.638 611.8 200.438 604.88H179.078V611.84C179.078 614.52 179.078 614.52 179.198 615.16ZM212.878 617.28V614C214.038 614.2 215.118 614.24 217.838 614.24H241.078C244.038 614.24 244.678 614.2 245.918 614.04V617.28C244.638 617.16 243.718 617.12 241.038 617.12H217.838C214.918 617.12 214.078 617.16 212.878 617.28ZM264.678 632.24H261.238C261.398 631.32 261.438 630.48 261.478 628.04V603.2C261.438 600.68 261.398 600 261.238 599.12H264.678C264.518 600.04 264.478 600.8 264.478 603.28V610.76C270.198 612.8 275.718 615.4 282.278 619.2L280.558 622.16C277.558 619.92 271.278 616.6 265.638 614.24C265.078 614 264.758 613.84 264.398 613.56L264.318 613.6C264.438 614.32 264.478 614.96 264.478 615.96V628C264.478 630.4 264.518 631.28 264.678 632.24ZM274.598 601.76L276.598 600.72C278.398 602.88 279.518 604.56 280.718 606.92L278.718 608.12C277.718 606 275.798 603 274.598 601.76ZM279.158 599.6L281.118 598.52C282.918 600.76 283.918 602.24 285.238 604.76L283.238 605.92C282.398 604 280.718 601.44 279.158 599.6ZM303.278 604.08H303.918C305.238 601.28 305.718 599.88 305.838 598.6L309.038 599.16C308.678 599.68 308.678 599.68 307.998 601.32C307.478 602.6 306.958 603.68 306.758 604.04C307.238 604 307.238 604 307.598 604C313.998 603.68 317.998 603.2 320.198 602.48L320.438 605.2C319.798 605.24 319.558 605.28 318.838 605.4C314.678 605.96 310.478 606.28 305.638 606.44C304.438 608.8 303.438 610.4 302.038 612.12C301.638 612.6 300.838 613.52 300.678 613.64C300.398 613.84 300.198 614 300.158 614.04C300.158 614.08 300.118 614.08 300.118 614.08C300.118 614.12 300.118 614.12 300.118 614.12C300.158 614.2 300.158 614.2 300.198 614.24C301.638 613.12 301.638 613.12 302.038 612.84C303.878 611.56 305.998 610.88 308.078 610.88C311.038 610.88 312.838 612.36 313.358 615.32C316.278 614.16 318.558 613.32 320.318 612.68C322.278 612 322.398 611.96 323.038 611.52L324.318 614.32C322.238 614.68 318.638 615.88 313.638 617.84C313.718 618.88 313.718 619.28 313.718 620.28C313.718 620.8 313.718 621.68 313.678 622.48C313.638 623.36 313.638 623.92 313.638 624.28C313.638 624.84 313.638 625.16 313.718 625.72L310.998 625.76C311.118 624.88 311.238 622.44 311.238 620C311.238 619.36 311.238 619.28 311.198 618.8C305.758 621.36 303.678 623.24 303.678 625.64C303.678 628.28 306.158 629.44 311.798 629.44C315.758 629.44 320.198 628.8 322.478 627.88L322.838 630.96C322.238 631 322.038 631.04 321.238 631.16C318.078 631.68 314.598 631.96 311.518 631.96C304.358 631.96 300.878 629.92 300.878 625.8C300.878 623.6 302.238 621.52 304.958 619.48C306.318 618.48 308.238 617.44 310.918 616.28C310.598 614.08 309.638 613.12 307.758 613.12C305.238 613.12 302.078 614.6 298.838 617.36C297.278 618.68 296.398 619.6 295.758 620.68L293.518 618.44C296.278 616.32 299.598 612.12 302.478 607C302.598 606.8 302.598 606.8 302.838 606.4C302.678 606.44 302.278 606.48 302.078 606.48C301.438 606.48 297.678 606.4 296.198 606.36C295.998 606.36 295.678 606.36 295.558 606.36C295.198 606.36 295.118 606.36 294.678 606.4L294.718 603.64C296.158 603.92 299.198 604.08 303.278 604.08ZM348.198 602.68H342.198C341.438 602.68 340.478 602.76 339.158 602.88V600C339.958 600.16 340.758 600.2 342.198 600.2H347.478C349.398 600.2 350.398 600.12 351.198 599.96C351.078 600.96 351.038 601.72 351.038 602.6C351.038 607.64 352.118 612.12 354.438 616.56C355.998 619.56 357.958 622.24 360.438 624.84C362.798 627.24 364.318 628.44 367.918 630.64C366.838 631.56 366.558 631.84 365.678 633.2C362.198 630.76 360.318 629.12 357.918 626.36C355.598 623.72 353.558 620.68 352.198 617.72C350.998 615.2 350.398 613.44 349.678 610.32C348.438 615.64 346.798 619.44 344.078 623.28C342.598 625.4 340.758 627.44 338.678 629.36C337.198 630.72 336.158 631.56 333.638 633.28C332.998 632.24 332.478 631.64 331.478 630.92C335.838 628.2 338.118 626.24 340.758 623.04C343.638 619.52 345.678 615.68 346.918 611.4C347.678 608.68 347.998 606.68 348.198 602.68ZM389.438 606.12H399.758C402.158 606.12 403.358 606.08 404.438 605.92C404.318 607.36 404.318 607.36 404.238 611.16C404.118 617.04 403.478 625.08 402.838 628.04C402.118 631.52 400.918 632.6 397.718 632.6C395.798 632.6 393.638 632.4 390.598 631.96C390.478 630.8 390.278 630.04 389.918 628.96C393.038 629.64 395.438 629.96 397.518 629.96C399.638 629.96 400.158 628.96 400.758 624.12C401.238 620.24 401.558 614.88 401.638 608.56H389.278C388.798 614.04 387.398 619.08 385.318 622.68C382.998 626.8 379.598 629.96 374.198 633.04C373.518 631.96 372.838 631.24 372.078 630.8C375.198 629.32 376.838 628.24 378.798 626.48C383.438 622.28 385.678 617.12 386.598 608.56H378.758C376.478 608.56 374.878 608.64 373.838 608.8V605.88C374.958 606.04 376.278 606.12 378.798 606.12H386.758C386.878 604.32 386.918 603.04 386.918 601.4C386.918 599.52 386.838 598.48 386.678 597.52H389.838C389.718 598.48 389.678 599.08 389.638 600.76C389.638 602.64 389.638 602.64 389.438 606.12ZM418.678 599.8H422.158C421.918 601.16 421.758 603.2 421.638 608.24C421.478 613.04 421.358 618.48 421.358 620.28C421.358 620.76 421.398 621.76 421.438 622.68C421.598 625.08 422.118 626.4 423.318 627.48C424.438 628.48 426.238 629.04 428.318 629.04C433.078 629.04 436.758 626.64 439.038 622.08C439.958 620.16 440.438 618.6 440.998 615.8C442.118 616.76 442.598 617.08 443.878 617.72C442.358 622.4 441.198 624.76 439.438 626.8C436.598 630.16 432.838 631.8 428.158 631.8C424.758 631.8 422.238 630.84 420.638 629C418.998 627.12 418.438 625 418.438 620.8C418.438 618.12 418.478 617.12 418.798 604.52C418.838 603.32 418.838 602.56 418.838 601.92C418.838 601.08 418.798 600.6 418.678 599.8ZM451.136 607.76L450.936 604.6C451.696 604.6 452.096 604.6 452.376 604.6C452.936 604.6 453.416 604.56 454.656 604.48C459.416 604.12 472.216 603.4 477.376 603.16C479.616 603.08 481.496 602.92 482.136 602.72L482.376 605.72C480.776 605.72 479.416 605.88 477.896 606.24C475.216 606.96 472.416 608.4 470.216 610.28C467.016 612.96 465.296 616.2 465.296 619.52C465.296 622.88 467.336 625.56 470.896 626.92C472.856 627.64 475.376 628.2 476.896 628.2C476.976 628.2 477.136 628.2 477.296 628.2L476.776 631.44C476.336 631.36 476.176 631.32 475.536 631.2C471.576 630.52 469.176 629.68 466.896 628.12C464.056 626.2 462.456 623.24 462.456 619.96C462.456 615.32 465.176 610.88 469.936 607.68C471.176 606.84 472.216 606.28 473.736 605.56C471.376 605.96 469.376 606.16 464.936 606.44C456.656 607 453.096 607.32 451.136 607.76ZM510.565 598.76L513.365 600.84C512.925 601.2 512.605 601.48 508.445 605.48C506.445 607.36 504.285 609.16 499.245 613.04C497.765 614.16 497.485 614.48 497.485 615.04C497.485 615.76 497.805 616.04 501.045 618.56C506.845 623 507.965 623.92 513.845 629.48C514.445 630.08 514.525 630.12 514.965 630.48L512.445 632.96C511.485 631.6 509.925 629.92 507.285 627.48C504.605 625 503.005 623.68 497.165 619.12C494.925 617.36 494.285 616.48 494.285 615.12C494.285 614.16 494.685 613.24 495.445 612.44C495.925 611.96 495.925 611.96 498.845 609.72C504.165 605.64 509.165 600.96 510.565 598.76ZM529.885 608.68V605.88C531.165 606.12 532.765 606.24 534.885 606.24C535.685 606.24 536.125 606.24 537.285 606.16C537.965 601.84 538.165 600.44 538.165 599.08C538.165 599 538.165 598.88 538.165 598.8L541.325 599.12C541.165 599.76 541.125 599.96 541.005 600.52C540.965 600.76 540.845 601.56 540.605 602.92C540.365 604.32 540.285 604.88 540.085 605.96C542.845 605.72 545.565 605.2 547.285 604.6L547.485 607.36L547.085 607.4L546.365 607.56C543.765 608.08 541.445 608.4 539.605 608.52C537.925 617 535.525 624.68 532.205 632.04L529.285 630.8C532.125 625.92 535.205 616.84 536.805 608.68C536.005 608.72 535.525 608.72 534.045 608.72C532.645 608.72 532.285 608.72 530.725 608.64C530.645 608.64 530.565 608.64 530.565 608.64C530.485 608.64 530.245 608.64 529.885 608.68ZM560.085 610.64L560.125 613.48C558.205 613.28 557.085 613.2 555.405 613.2C551.845 613.2 549.045 613.56 545.405 614.56L545.125 611.84C549.765 610.84 552.365 610.52 555.725 610.52C556.485 610.52 557.085 610.52 560.085 610.64ZM545.525 619.28L547.765 620.4C546.965 621.36 546.845 621.48 546.565 621.92C545.925 622.76 545.565 623.8 545.565 624.76C545.565 627.16 548.005 628.44 552.565 628.44C555.565 628.44 559.125 627.88 561.405 627.08L561.685 630.08L561.165 630.16L559.925 630.4C557.245 630.84 554.925 631.04 552.805 631.04C546.245 631.04 542.845 629 542.845 625.04C542.845 623.24 543.405 622 545.525 619.28ZM552.125 600.52L554.125 599.44C555.925 601.6 557.045 603.28 558.245 605.64L556.245 606.84C555.245 604.72 553.325 601.76 552.125 600.52ZM556.685 598.36L558.645 597.28C560.445 599.48 561.445 600.96 562.765 603.48L560.765 604.64C559.925 602.76 558.245 600.2 556.685 598.36ZM571.845 609.84L571.685 606.92C572.725 607.08 573.405 607.12 574.765 607.12C578.405 607.12 582.925 606.8 586.685 606.28C586.085 604.92 585.445 603.32 584.725 601.52C584.285 600.48 584.045 599.92 583.685 599.2L586.845 598.76C587.005 599.8 587.005 599.8 588.005 602.36C588.965 604.92 589.085 605.12 589.445 605.88C593.325 605.24 596.965 604.28 599.125 603.36L599.525 606.2C598.685 606.36 598.365 606.44 597.165 606.76C594.765 607.4 594.285 607.52 591.765 608C590.805 608.2 590.805 608.2 590.405 608.28C591.845 611.4 594.805 616.2 597.605 619.92L594.925 621.44C593.845 620.56 593.285 620.2 592.165 619.8C590.125 619.12 587.885 618.76 585.165 618.76C581.805 618.76 579.365 619.32 577.565 620.44C576.245 621.28 575.405 622.72 575.405 624.16C575.405 625.4 575.965 626.48 576.925 627.28C578.405 628.44 581.285 629.12 584.725 629.12C588.685 629.12 593.085 628.12 596.085 626.56L596.525 629.64C592.525 631.12 588.725 631.8 584.765 631.8C579.885 631.8 576.205 630.72 574.365 628.8C573.205 627.56 572.565 626 572.565 624.4C572.565 621.76 574.285 619.24 577.085 617.88C579.205 616.84 581.605 616.4 584.845 616.4C588.285 616.4 591.445 616.96 593.125 617.84C591.045 615 590.045 613.36 588.325 610C587.885 609.16 587.885 609.08 587.645 608.68C583.685 609.24 578.685 609.64 573.405 609.72C572.645 609.72 572.445 609.76 571.845 609.84ZM611.245 602.64L614.605 602.68C614.405 603.92 614.325 605.24 614.325 607.44C614.325 611.84 614.765 617.32 615.365 619.88C616.245 623.96 617.885 626.72 619.405 626.72C620.125 626.72 620.805 626.04 621.405 624.72C622.325 622.72 622.965 620.6 623.485 617.88C624.365 618.92 624.725 619.28 625.845 620.16C623.885 627.16 622.045 629.84 619.205 629.84C616.965 629.84 614.885 627.6 613.525 623.76C612.125 619.96 611.565 614.84 611.365 605C611.325 603.48 611.325 603.36 611.245 602.64ZM631.485 606.04L633.925 604.8C636.525 607.88 638.165 610.52 639.645 613.92C641.165 617.28 641.925 620.12 642.645 624.6L639.805 625.76C639.085 618.32 636.165 611.48 631.485 606.04Z" fill="#7B7B7B"/>
<path d="M578 177.04H566.32C567.84 182 569.2 184.88 571.52 188.44C573.04 190.68 574.88 192.72 577.28 194.76C579.36 196.56 580.68 197.48 583.6 199.12C582.84 200.04 582.56 200.52 581.92 201.76C575.8 197.68 572.48 194.48 569.48 189.84C567.4 186.56 566.16 183.88 564.84 179.72C563.88 183.92 562.6 187.12 560.64 190.2C557.72 194.76 554.48 197.76 548.4 201.44C547.88 200.4 547.56 199.88 546.72 199.04C556.24 194.04 561.12 187.32 562.72 177.04H551.88C549.72 177.04 548.68 177.12 547.48 177.32V174.32C548.52 174.52 549.8 174.6 552 174.6H563C563.16 172.92 563.2 171.8 563.2 170.28C563.2 168.44 563.12 167.04 562.92 165.92H566.12C565.92 167.28 565.88 168.08 565.84 170.08C565.84 171.8 565.76 172.8 565.64 174.6H577.96C580 174.6 581.32 174.52 582.36 174.32V177.32C581.12 177.12 579.96 177.04 578 177.04ZM569 197.8L566.76 199.44C564.56 196.04 563.36 194.52 560.76 191.8L562.84 190.44C565.2 192.76 566.88 194.76 569 197.8ZM606.36 198.68L604.08 200C603.16 198 602.8 197.36 601.96 195.84C596.88 197.84 594.12 198.76 589.44 200.08C588.88 200.24 588.08 200.48 587.32 200.76L586.68 198.04C587.68 197.96 588.48 197.84 589.84 197.52V174.36C589.84 172.8 589.8 171.64 589.68 170.72C590.56 170.84 591.52 170.88 593.08 170.88H595.96V168.76C595.96 167.68 595.88 166.92 595.72 166.08H598.68C598.52 166.88 598.44 167.68 598.44 168.8V170.88H601.4C602.96 170.88 603.88 170.84 604.8 170.72C604.68 171.68 604.64 172.72 604.64 174.4V183.8C604.64 185.36 604.68 186.32 604.76 187.44C603.8 187.32 602.8 187.28 601.4 187.28H592.32V196.88C595.96 195.84 597.12 195.44 600.84 193.96C599.92 192.44 599.4 191.68 598 189.8L600.12 188.84C602.6 192.12 604.32 194.84 606.36 198.68ZM592.32 177.8H602.2V173.12H592.32V177.8ZM592.32 179.96V185.04H602.2V179.96H592.32ZM621.16 167.32L622.56 169.12C622.28 169.64 622.08 170.08 621.88 170.6C620.68 173.64 618.44 178.24 616.92 180.8C619 183 619.84 184.04 620.68 185.52C621.84 187.48 622.4 189.6 622.4 191.76C622.4 194.4 621.36 196 619.28 196.6C618.56 196.8 617.36 196.92 616.2 196.92C615.52 196.92 614.68 196.88 613.44 196.76C613.44 195.6 613.28 194.92 612.96 194.08C614.32 194.32 615.36 194.44 616.36 194.44C618.96 194.44 619.76 193.8 619.76 191.72C619.76 189.88 619.28 188.08 618.32 186.36C617.36 184.6 616.36 183.4 613.92 181.2C616.4 177.04 617.68 174.28 619.36 169.72H610.96V197.52C610.96 199.52 611.04 200.96 611.24 202.12H608.2C608.36 201.04 608.44 199.88 608.44 197.84V171C608.44 169.8 608.4 168.52 608.28 167.36C609.32 167.44 610.08 167.48 611.44 167.48H618.08C619.56 167.48 620.4 167.44 621.16 167.32Z" fill="#7B7B7B"/>
<path d="M110.92 104.524V112.12H114.592C116.248 112.12 117.22 112.084 118.336 111.94V114.388C117.256 114.244 116.14 114.208 114.592 114.208H110.92V123.424H115.744C117.22 123.424 118.336 123.352 119.56 123.208V125.764C118.372 125.62 117.076 125.548 115.744 125.548H103.216C101.848 125.548 100.588 125.62 99.4 125.764V123.208C100.516 123.352 101.668 123.424 103.216 123.424H108.652V114.208H105.16C103.684 114.208 102.46 114.28 101.38 114.388V111.94C102.388 112.084 103.504 112.12 105.16 112.12H108.652V104.524H103.828C103.108 106.72 102.568 108.052 101.524 109.96C100.732 109.456 100.372 109.276 99.508 108.952C101.056 106.252 101.92 104.056 102.604 100.924C103.036 99.016 103.252 97.468 103.252 96.496C103.252 96.46 103.252 96.352 103.252 96.208L105.7 96.46C105.52 97.072 105.484 97.36 105.304 98.332C105.052 99.808 104.728 101.32 104.44 102.436H108.652V97.864C108.652 96.568 108.58 95.524 108.4 94.3H111.172C110.992 95.452 110.92 96.532 110.92 97.936V102.436H115.312C117.04 102.436 118.228 102.364 118.948 102.22V104.74C117.58 104.596 116.608 104.524 115.384 104.524H110.92ZM93.532 101.716H95.872C97.456 101.716 98.392 101.68 99.112 101.572C99.04 102.112 99.004 102.796 98.932 103.48C98.572 109.312 97.636 113.524 95.872 117.304C97.384 118.528 98.032 119.068 99.76 120.724L98.248 122.632C96.736 120.976 96.088 120.364 94.864 119.284C93.064 122.344 91.336 124.288 88.276 126.628C87.916 126.124 87.016 125.188 86.548 124.792C89.572 122.776 91.588 120.688 93.172 117.88C91.192 116.296 90.256 115.648 87.844 114.136C89.176 111.004 90.184 107.548 90.94 103.732H89.968C88.852 103.732 87.88 103.804 86.944 103.912V101.536C87.736 101.68 88.528 101.716 90.076 101.716H91.3C91.948 98.296 92.2 96.136 92.2 94.696C92.2 94.588 92.2 94.48 92.164 94.3L94.756 94.516C94.576 95.308 94.504 95.632 94.288 97.144C94.036 98.944 93.928 99.592 93.532 101.716ZM96.808 103.732H93.136C92.344 107.692 91.552 110.5 90.4 113.416C92.236 114.604 92.884 115.036 94.144 115.972C95.728 112.444 96.232 110.176 96.808 103.732ZM155.632 126.916H152.428C149.728 123.82 148.612 122.092 147.424 119.176C146.236 116.296 145.696 113.452 145.696 110.32C145.696 107.188 146.236 104.344 147.424 101.464C148.612 98.548 149.728 96.82 152.428 93.724H155.632C152.608 96.784 151.42 98.404 150.16 101.176C148.864 104.056 148.216 107.044 148.216 110.32C148.216 113.596 148.864 116.584 150.16 119.464C151.42 122.236 152.608 123.856 155.632 126.916ZM187.312 118.78H179.68C182.38 121.66 186.16 123.496 191.02 124.216C190.552 124.9 190.336 125.332 189.904 126.448C184.468 125.152 180.112 122.596 177.7 119.284C176.62 121.3 175.252 122.776 173.272 124.036C171.472 125.224 170.104 125.764 166.972 126.556C166.576 125.656 166.288 125.152 165.64 124.468C168.484 124 170.428 123.352 172.156 122.272C173.74 121.264 174.784 120.22 175.612 118.78H170.284C168.88 118.78 167.692 118.852 166.792 118.996V116.656C167.62 116.8 168.772 116.872 170.356 116.872H176.44C176.764 115.828 176.872 115.18 177.016 114.028H171.76C170.284 114.028 169.132 114.1 168.268 114.244V111.94C169.132 112.084 170.32 112.156 171.796 112.156H177.16C177.232 110.536 177.232 110.248 177.268 109.384H172.156C170.644 109.384 169.672 109.42 168.664 109.528C168.772 108.628 168.808 107.98 168.808 106.648V104.884C168.808 103.516 168.772 102.76 168.664 101.932C169.456 102.04 170.104 102.076 171.832 102.076H185.584C187.456 102.076 188.068 102.04 188.788 101.932C188.68 103.012 188.644 103.48 188.644 104.74V106.612C188.644 107.944 188.68 108.484 188.788 109.528C187.852 109.42 186.844 109.384 185.26 109.384H179.356C179.32 110.32 179.32 110.536 179.248 112.156H185.908C187.708 112.156 188.716 112.084 189.472 111.94V114.244C188.536 114.1 187.348 114.028 185.872 114.028H179.104C178.96 115.324 178.888 115.864 178.6 116.872H187.348C189.148 116.872 190.048 116.836 190.912 116.656V118.996C189.976 118.852 188.824 118.78 187.312 118.78ZM177.268 103.876H170.932V107.656H177.268V103.876ZM179.356 103.876V107.656H186.484V103.876H179.356ZM167.116 99.016L167.26 99.16L165.712 100.888C164.02 98.944 162.58 97.684 160.168 96.064L161.716 94.516C164.056 96.1 165.424 97.216 167.08 98.944V96.712C168.088 96.892 168.916 96.928 170.716 96.928H173.092V96.28C173.092 95.236 173.02 94.624 172.912 93.94H175.396C175.252 94.624 175.216 95.236 175.216 96.316V96.928H181.804V96.28C181.804 95.272 181.768 94.624 181.624 93.94H184.108C183.964 94.588 183.928 95.236 183.928 96.316V96.928H187.132C188.896 96.928 189.832 96.892 190.84 96.712V99.016C189.76 98.872 188.716 98.836 187.168 98.836H183.928V99.124C183.928 100.132 183.964 100.6 184.072 101.212H181.66C181.768 100.564 181.804 100.06 181.804 99.16V98.836H175.216V99.16C175.216 100.168 175.252 100.6 175.324 101.212H172.948C173.056 100.492 173.092 100.132 173.092 99.16V98.836H170.536C169.06 98.836 168.124 98.872 167.116 99.016ZM158.548 104.884L159.988 103.228C162.4 104.74 163.696 105.712 165.928 107.728L164.416 109.672C162.4 107.584 160.924 106.36 158.548 104.884ZM164.488 113.668L166.324 115.072C164.992 118.96 163.804 121.66 161.968 124.972C161.68 125.512 161.572 125.728 161.32 126.196L159.232 124.324C161.212 122.02 162.904 118.564 164.488 113.668ZM209.488 98.008V96.928C209.488 95.74 209.416 94.84 209.272 93.94H212.116C211.972 94.876 211.9 95.74 211.9 96.928V98.008H222.34C223.816 98.008 224.932 97.972 226.192 97.828C226.048 98.656 226.012 99.448 226.012 100.6V102.652C226.012 103.516 226.084 104.344 226.192 105.172H223.78V100.096H198.436V105.172H196.024C196.132 104.344 196.204 103.516 196.204 102.652V100.6C196.204 99.484 196.168 98.764 196.024 97.828C197.284 97.972 198.4 98.008 199.876 98.008H209.488ZM199.336 112.876H209.776C209.776 111.58 209.74 110.824 209.596 109.996H211.396C213.988 108.736 215.392 107.8 217.624 105.856H203.836C202.432 105.856 201.388 105.928 200.308 106.108V103.588C201.244 103.732 202.252 103.804 203.836 103.804H217.804C219.136 103.804 219.856 103.768 220.468 103.66L221.692 105.136C221.224 105.532 221.188 105.568 220.324 106.288C217.66 108.556 215.608 109.924 212.188 111.76V112.876H222.88C224.428 112.876 225.652 112.804 226.66 112.66V115.18C225.616 115.036 224.392 114.964 222.88 114.964H212.188V123.172C212.188 125.368 211.216 126.124 208.372 126.124C206.932 126.124 205.492 126.052 203.836 125.872C203.728 124.972 203.584 124.468 203.188 123.46C204.628 123.748 206.86 124 208.264 124C209.416 124 209.776 123.748 209.776 122.956V114.964H199.336C197.824 114.964 196.6 115.036 195.556 115.18V112.66C196.636 112.804 197.788 112.876 199.336 112.876ZM233.572 126.916H230.368C233.392 123.892 234.58 122.236 235.84 119.464C237.136 116.584 237.784 113.596 237.784 110.32C237.784 107.044 237.136 104.056 235.84 101.176C234.58 98.404 233.392 96.748 230.368 93.724H233.572C236.272 96.82 237.388 98.548 238.576 101.464C239.764 104.344 240.304 107.188 240.304 110.32C240.304 113.452 239.764 116.296 238.576 119.176C237.388 122.092 236.272 123.82 233.572 126.916Z" fill="black"/>
<path d="M109.912 302.028L112.936 303.18C112.468 303.864 112.324 304.188 111.82 305.376C109.48 310.884 108.364 313.08 106.528 315.888C109.624 318.444 111.928 320.64 114.808 323.628L112.792 325.86C110.884 323.412 108.58 321.108 104.944 318.048C101.164 323.232 96.772 327.012 90.472 330.576C89.824 329.496 89.536 329.172 88.6 328.416C94.36 325.608 98.968 321.72 102.928 316.392C99.652 313.764 96.268 311.532 93.244 309.876L95.044 307.968C98.572 310.092 100.372 311.28 104.404 314.232C106.096 311.568 107.392 308.976 108.652 305.844C109.552 303.648 109.732 303.072 109.912 302.028ZM124.132 317.652V314.7C125.176 314.88 126.148 314.916 128.596 314.916H149.512C152.176 314.916 152.752 314.88 153.868 314.736V317.652C152.716 317.544 151.888 317.508 149.476 317.508H128.596C125.968 317.508 125.212 317.544 124.132 317.652ZM165.243 302.568L168.231 302.748C168.087 303.648 168.087 303.648 168.015 305.844C167.727 315.6 167.439 318.264 166.071 321.9C164.847 325.248 163.119 327.66 159.843 330.792C159.123 329.856 158.763 329.532 157.683 328.848C160.635 326.508 162.579 323.916 163.767 320.568C164.883 317.436 165.387 312.72 165.387 305.124C165.387 303.828 165.351 303.396 165.243 302.568ZM174.207 302.316L177.159 302.352C176.979 303.216 176.943 303.864 176.943 305.52L176.727 327.264C179.715 326.148 181.551 324.996 183.423 323.088C185.403 321.036 186.807 318.66 187.671 315.888C188.427 316.86 188.715 317.184 189.687 317.976C187.923 322.116 185.547 325.104 182.451 327.228C180.867 328.308 179.427 329.028 177.303 329.856C176.655 330.108 176.655 330.108 176.151 330.288C175.719 330.468 175.647 330.504 175.323 330.684L173.883 329.028C174.099 328.416 174.135 328.128 174.135 326.58L174.351 305.52C174.351 303.18 174.351 303.18 174.207 302.316ZM221.158 303.432L222.598 305.16C222.238 305.628 222.166 305.736 221.734 306.6C219.25 311.424 215.902 314.7 211.222 316.86C210.682 315.96 210.394 315.636 209.458 314.808C211.978 313.836 213.454 312.972 215.146 311.388C216.802 309.84 218.134 308.076 219.178 306.024H198.73C196.75 306.024 195.814 306.06 194.482 306.204V303.432C195.706 303.612 196.714 303.684 198.766 303.684H218.098C220.51 303.684 220.51 303.684 221.158 303.432ZM205.462 309.696H208.378C208.27 310.344 208.27 310.344 208.234 312.216C208.126 318.228 207.118 321.792 204.67 324.888C202.474 327.66 199.81 329.46 195.454 331.116C194.914 329.964 194.662 329.604 193.798 328.704C196.714 327.84 198.514 326.94 200.386 325.392C204.202 322.332 205.606 318.66 205.606 311.64C205.606 310.632 205.57 310.38 205.462 309.696ZM239.518 331.116H236.422C236.566 330.288 236.602 329.532 236.638 327.336V304.98C236.602 302.712 236.566 302.1 236.422 301.308H239.518C239.374 302.136 239.338 302.82 239.338 305.052V311.784C244.486 313.62 249.454 315.96 255.358 319.38L253.81 322.044C251.11 320.028 245.458 317.04 240.382 314.916C239.878 314.7 239.59 314.556 239.266 314.304L239.194 314.34C239.302 314.988 239.338 315.564 239.338 316.464V327.3C239.338 329.46 239.374 330.252 239.518 331.116ZM248.446 303.684L250.246 302.748C251.866 304.692 252.874 306.204 253.954 308.328L252.154 309.408C251.254 307.5 249.526 304.8 248.446 303.684ZM252.55 301.74L254.314 300.768C255.934 302.784 256.834 304.116 258.022 306.384L256.222 307.428C255.466 305.7 253.954 303.396 252.55 301.74ZM269.974 302.352H273.034C272.926 303.108 272.854 304.044 272.854 305.556L272.746 327.264C276.886 326.58 280.162 325.464 283.042 323.664C286.642 321.432 289.054 318.84 291.142 315.024C292.042 316.284 292.258 316.572 293.122 317.292C288.19 324.636 282.898 327.984 273.286 329.856C271.882 330.144 271.702 330.18 271.198 330.396L269.758 328.596C269.938 327.984 270.01 327.588 270.01 326.256L270.082 305.628V304.296C270.082 303.576 270.046 303.144 269.974 302.352ZM328.057 328.056L326.005 330.324C323.161 326.688 319.093 322.764 314.485 319.2C311.965 322.08 310.201 323.736 307.609 325.644C305.125 327.444 303.217 328.632 300.553 329.964C299.977 328.884 299.689 328.488 298.789 327.588C301.561 326.472 303.325 325.5 306.097 323.448C311.857 319.2 316.321 313.512 318.949 307.212C319.021 306.996 319.057 306.96 319.129 306.78C319.201 306.672 319.201 306.636 319.237 306.528C318.913 306.564 318.805 306.564 318.373 306.564L306.349 306.744C304.729 306.78 303.685 306.852 302.641 307.032L302.569 304.116C303.541 304.26 304.189 304.296 305.413 304.296C305.521 304.296 305.845 304.296 306.349 304.296L319.201 304.152C320.461 304.116 320.893 304.08 321.505 303.864L323.017 305.412C322.657 305.844 322.405 306.276 322.009 307.176C319.993 311.64 318.301 314.484 316.069 317.256C320.785 320.856 323.953 323.7 328.057 328.056Z" fill="black"/>
<path d="M95.98 529.828L99.004 530.368C98.86 530.764 98.824 530.98 98.536 532.816C97.024 543.076 94.108 549.988 89.032 555.28C88.132 554.308 87.736 553.984 86.728 553.408C88.96 551.32 90.436 549.304 91.948 546.28C93.712 542.716 94.972 538.504 95.656 533.788C95.872 532.348 96.016 531.052 96.016 530.404C96.016 530.296 96.016 530.08 95.98 529.828ZM106.312 530.368L108.976 529.828C108.976 531.376 109.768 535.516 110.632 538.468C112.36 544.804 115.312 550.132 118.804 553.336C117.832 553.948 117.4 554.344 116.572 555.352C111.784 550.276 108.184 541.96 106.78 532.744C106.6 531.484 106.456 530.836 106.312 530.368ZM115.996 527.056C118.264 527.056 120.064 528.856 120.064 531.124C120.064 533.356 118.228 535.192 115.996 535.192C113.728 535.192 111.892 533.356 111.892 531.124C111.892 528.892 113.728 527.056 115.996 527.056ZM115.996 528.568C114.556 528.568 113.404 529.72 113.404 531.124C113.404 532.528 114.556 533.68 115.996 533.68C117.4 533.68 118.552 532.528 118.552 531.124C118.552 529.72 117.4 528.568 115.996 528.568ZM153.436 554.056L151.384 556.324C148.54 552.688 144.472 548.764 139.864 545.2C137.344 548.08 135.58 549.736 132.988 551.644C130.504 553.444 128.596 554.632 125.932 555.964C125.356 554.884 125.068 554.488 124.168 553.588C126.94 552.472 128.704 551.5 131.476 549.448C137.236 545.2 141.7 539.512 144.328 533.212C144.4 532.996 144.436 532.96 144.508 532.78C144.58 532.672 144.58 532.636 144.616 532.528C144.292 532.564 144.184 532.564 143.752 532.564L131.728 532.744C130.108 532.78 129.064 532.852 128.02 533.032L127.948 530.116C128.92 530.26 129.568 530.296 130.792 530.296C130.9 530.296 131.224 530.296 131.728 530.296L144.58 530.152C145.84 530.116 146.272 530.08 146.884 529.864L148.396 531.412C148.036 531.844 147.784 532.276 147.388 533.176C145.372 537.64 143.68 540.484 141.448 543.256C146.164 546.856 149.332 549.7 153.436 554.056ZM164.379 541.744H161.391C161.499 540.916 161.535 540.34 161.535 538.828V532.672C161.499 531.268 161.499 530.944 161.427 529.972C162.219 530.044 163.335 530.116 164.199 530.116H182.811C184.287 530.116 184.647 530.08 185.367 529.828L186.843 531.232C186.519 531.808 186.447 532.096 186.303 533.248C185.223 541.492 183.423 545.992 179.535 550.024C176.799 552.868 173.415 555.028 169.239 556.612C168.663 555.46 168.411 555.1 167.511 554.2C173.343 552.184 177.195 549.448 179.751 545.416C181.767 542.284 182.775 538.72 183.495 532.492H164.271V538.756C164.271 541.168 164.271 541.168 164.379 541.744ZM194.691 543.652V540.7C195.735 540.88 196.707 540.916 199.155 540.916H220.071C222.735 540.916 223.311 540.88 224.427 540.736V543.652C223.275 543.544 222.447 543.508 220.035 543.508H199.155C196.527 543.508 195.771 543.544 194.691 543.652ZM241.311 557.116H238.215C238.359 556.288 238.395 555.532 238.431 553.336V530.98C238.395 528.712 238.359 528.1 238.215 527.308H241.311C241.167 528.136 241.131 528.82 241.131 531.052V537.784C246.279 539.62 251.247 541.96 257.151 545.38L255.603 548.044C252.903 546.028 247.251 543.04 242.175 540.916C241.671 540.7 241.383 540.556 241.059 540.304L240.987 540.34C241.095 540.988 241.131 541.564 241.131 542.464V553.3C241.131 555.46 241.167 556.252 241.311 557.116ZM250.239 529.684L252.039 528.748C253.659 530.692 254.667 532.204 255.747 534.328L253.947 535.408C253.047 533.5 251.319 530.8 250.239 529.684ZM254.343 527.74L256.107 526.768C257.727 528.784 258.627 530.116 259.815 532.384L258.015 533.428C257.259 531.7 255.747 529.396 254.343 527.74ZM298.191 558.916H294.987C292.287 555.82 291.171 554.092 289.983 551.176C288.795 548.296 288.255 545.452 288.255 542.32C288.255 539.188 288.795 536.344 289.983 533.464C291.171 530.548 292.287 528.82 294.987 525.724H298.191C295.167 528.784 293.979 530.404 292.719 533.176C291.423 536.056 290.775 539.044 290.775 542.32C290.775 545.596 291.423 548.584 292.719 551.464C293.979 554.236 295.167 555.856 298.191 558.916ZM315.039 541.456C316.551 541.672 317.559 542.104 318.747 543.004C320.547 544.336 321.447 546.244 321.447 548.656C321.447 553.588 317.847 556.36 311.511 556.36C304.923 556.36 301.287 553.624 301.287 548.656C301.287 546.064 302.331 544.084 304.491 542.68C305.607 541.96 306.399 541.672 307.731 541.456C304.563 540.88 302.511 538.324 302.511 534.976C302.511 530.62 305.931 527.848 311.367 527.848C316.875 527.848 320.259 530.548 320.259 534.976C320.259 538.324 318.243 540.844 315.039 541.456ZM311.367 530.26C307.695 530.26 305.319 532.204 305.319 535.192C305.319 538.396 307.623 540.34 311.403 540.34C315.183 540.34 317.451 538.396 317.451 535.192C317.451 532.168 315.075 530.26 311.367 530.26ZM311.367 542.824C306.939 542.824 304.239 544.984 304.239 548.476C304.239 551.896 306.867 553.912 311.331 553.912C313.851 553.912 315.903 553.264 317.127 552.04C318.027 551.212 318.495 549.952 318.495 548.476C318.495 544.948 315.795 542.824 311.367 542.824ZM353.279 534.328H350.399C349.535 537.244 349.103 538.36 348.203 540.232C346.835 543.076 345.215 545.452 342.911 547.936C344.891 549.772 346.943 551.212 349.427 552.58C352.199 554.092 354.179 554.884 357.779 555.856C357.059 556.576 356.627 557.224 356.195 558.232C349.967 556.18 345.359 553.516 341.255 549.592C336.971 553.552 332.039 556.36 326.171 558.196C325.739 557.224 325.343 556.684 324.659 555.964C330.599 554.344 335.495 551.716 339.599 547.972C337.871 546.1 336.503 544.264 335.243 542.068C333.767 539.62 333.083 537.964 331.895 534.328H329.231C327.431 534.328 326.315 534.4 325.235 534.544V531.988C326.351 532.168 327.575 532.24 329.267 532.24H339.599V529.432C339.599 528.208 339.527 527.272 339.347 526.336H342.227C342.047 527.2 341.975 528.208 341.975 529.396V532.24H353.207C354.971 532.24 356.231 532.168 357.311 531.988V534.544C356.303 534.4 355.223 534.328 353.279 534.328ZM347.771 534.328H334.379C335.351 537.46 335.963 538.9 337.331 541.204C338.519 543.148 339.599 544.552 341.255 546.352C344.387 542.932 346.367 539.296 347.771 534.328ZM375.707 530.008V528.928C375.707 527.74 375.635 526.84 375.491 525.94H378.335C378.191 526.876 378.119 527.74 378.119 528.928V530.008H388.559C390.035 530.008 391.151 529.972 392.411 529.828C392.267 530.656 392.231 531.448 392.231 532.6V534.652C392.231 535.516 392.303 536.344 392.411 537.172H389.999V532.096H364.655V537.172H362.243C362.351 536.344 362.423 535.516 362.423 534.652V532.6C362.423 531.484 362.387 530.764 362.243 529.828C363.503 529.972 364.619 530.008 366.095 530.008H375.707ZM365.555 544.876H375.995C375.995 543.58 375.959 542.824 375.815 541.996H377.615C380.207 540.736 381.611 539.8 383.843 537.856H370.055C368.651 537.856 367.607 537.928 366.527 538.108V535.588C367.463 535.732 368.471 535.804 370.055 535.804H384.023C385.355 535.804 386.075 535.768 386.687 535.66L387.911 537.136C387.443 537.532 387.407 537.568 386.543 538.288C383.879 540.556 381.827 541.924 378.407 543.76V544.876H389.099C390.647 544.876 391.871 544.804 392.879 544.66V547.18C391.835 547.036 390.611 546.964 389.099 546.964H378.407V555.172C378.407 557.368 377.435 558.124 374.591 558.124C373.151 558.124 371.711 558.052 370.055 557.872C369.947 556.972 369.803 556.468 369.407 555.46C370.847 555.748 373.079 556 374.483 556C375.635 556 375.995 555.748 375.995 554.956V546.964H365.555C364.043 546.964 362.819 547.036 361.775 547.18V544.66C362.855 544.804 364.007 544.876 365.555 544.876ZM423.155 527.164L425.963 527.236C425.855 527.956 425.819 528.1 425.675 530.8C425.495 533.572 424.739 537.928 424.055 540.304C423.407 542.608 422.471 544.696 421.175 546.856C423.191 550.672 426.071 553.624 429.995 555.964C429.275 556.72 428.879 557.296 428.375 558.268C425.963 556.576 424.595 555.316 422.831 553.264C421.535 551.752 420.851 550.744 419.807 548.944C416.639 553.192 412.607 556.144 406.631 558.556C406.235 557.692 405.659 556.936 405.083 556.396C408.179 555.244 410.159 554.272 412.283 552.832C417.359 549.412 420.563 544.804 422.111 538.576C422.867 535.552 423.263 532.348 423.263 529.036C423.263 528.136 423.227 527.848 423.155 527.164ZM401.231 550.276L401.051 531.052C401.051 529.576 400.979 528.568 400.763 527.272H403.643C403.499 528.244 403.427 529.36 403.427 530.656V531.088L403.607 549.34C405.587 548.548 406.775 548.008 408.323 547.252C411.131 545.848 412.787 544.984 413.831 544.228L414.299 546.46C409.979 549.052 406.127 550.924 400.187 553.192C399.107 553.588 398.783 553.732 398.063 554.092L397.271 551.464C398.783 551.104 399.719 550.816 401.231 550.276ZM408.251 531.052L410.231 529.72C413.075 532.636 414.623 534.508 417.215 538.324L415.055 539.836C412.679 535.948 411.455 534.364 408.251 531.052ZM449.723 540.052V554.632H461.495C463.187 554.632 464.303 554.56 465.527 554.416V557.152C464.159 556.972 463.043 556.9 461.495 556.9H437.519C435.971 556.9 434.639 556.972 433.271 557.152V554.416C434.459 554.56 435.719 554.632 437.519 554.632H447.167V530.332C447.167 528.964 447.095 527.848 446.915 526.588H449.975C449.795 527.812 449.723 528.964 449.723 530.332V537.712H458.831C460.379 537.712 461.531 537.64 462.575 537.496V540.268C461.459 540.124 460.379 540.052 458.831 540.052H449.723ZM497.387 547.288H486.371C487.883 549.736 489.071 550.96 491.411 552.472C494.183 554.236 496.955 555.28 501.383 556.288C500.699 557.116 500.411 557.656 500.051 558.628C492.239 556.504 487.415 553.264 484.463 548.152C483.383 550.996 481.547 553.336 478.991 555.1C476.615 556.756 474.239 557.692 470.279 558.556C469.919 557.62 469.523 556.864 469.019 556.216C473.195 555.604 475.859 554.632 478.235 552.904C480.215 551.464 481.583 549.628 482.447 547.288H473.051C471.431 547.288 470.279 547.36 469.019 547.504V545.056C469.991 545.2 470.963 545.272 472.871 545.272H473.699V540.34C473.699 538.792 473.663 537.856 473.519 536.992C474.455 537.1 475.319 537.136 477.011 537.136H483.671C483.671 535.552 483.635 534.94 483.455 533.896H486.119C485.939 534.976 485.939 535.192 485.903 537.136H493.211C494.903 537.136 495.731 537.1 496.703 536.992C496.559 537.856 496.523 538.72 496.523 540.304V545.272H497.531C499.547 545.272 500.447 545.236 501.455 545.056V547.504C500.195 547.36 499.043 547.288 497.387 547.288ZM475.967 545.272H483.023C483.311 543.688 483.527 541.816 483.635 539.116H475.967V545.272ZM485.255 545.272H494.255V539.116H485.867C485.723 541.888 485.579 543.364 485.255 545.272ZM478.307 529.684V528.964C478.307 528.064 478.235 527.236 478.091 526.408H480.755C480.611 527.2 480.539 528.064 480.539 528.964V529.684H489.107V528.964C489.107 528.064 489.035 527.308 488.927 526.408H491.555C491.411 527.236 491.339 528.028 491.339 528.964V529.684H496.883C498.719 529.684 499.907 529.612 500.951 529.468V531.916C499.799 531.772 498.719 531.736 496.883 531.736H491.339V532.852C491.339 533.86 491.375 534.4 491.483 535.228H488.963C489.071 534.544 489.107 533.824 489.107 532.888V531.736H480.539V532.852C480.539 533.86 480.575 534.508 480.683 535.228H478.163C478.271 534.436 478.307 533.752 478.307 532.888V531.736H473.231C471.395 531.736 470.351 531.772 469.235 531.916V529.468C470.243 529.612 471.431 529.684 473.231 529.684H478.307ZM537.743 532.852V535.3C536.915 535.156 536.519 535.12 534.683 535.12C534.431 538.72 534.179 540.52 533.459 542.968C532.775 545.416 531.947 547.36 530.651 549.448C532.847 552.4 535.223 554.452 538.643 556.252C538.067 556.972 537.779 557.476 537.311 558.484C534.035 556.576 531.551 554.38 529.319 551.356C527.051 554.236 524.171 556.612 520.175 558.772C519.743 557.908 519.311 557.368 518.699 556.756C522.947 554.704 525.755 552.508 528.023 549.412C526.079 546.172 525.071 543.256 524.315 538.828C523.451 540.556 522.875 541.492 521.687 543.004C521.039 542.284 520.679 542.032 519.887 541.6C521.759 539.404 523.055 537.172 524.315 533.824C525.323 531.196 526.007 528.352 526.151 526.084L528.599 526.624C528.419 527.128 528.419 527.128 527.951 528.892C527.483 530.656 527.231 531.664 526.763 533.068H534.395C536.051 533.068 536.771 533.032 537.743 532.852ZM532.451 535.12H526.007C525.863 535.444 525.863 535.516 525.683 535.912C526.475 540.916 527.411 543.976 529.319 547.36C530.651 544.912 531.515 542.32 532.019 539.296C532.271 538 532.343 537.244 532.451 535.12ZM520.139 554.236L518.879 556.216C517.223 554.992 516.611 554.596 514.955 553.732C512.723 555.82 510.527 557.008 506.243 558.52C505.919 557.728 505.631 557.224 505.091 556.54C508.439 555.64 510.923 554.416 513.011 552.724C511.391 551.968 510.419 551.572 507.503 550.492C508.727 548.836 509.159 548.188 510.059 546.604H507.863C506.675 546.604 505.991 546.64 505.307 546.784V544.516C505.955 544.66 506.603 544.696 507.863 544.696H511.067C511.499 543.796 511.715 543.292 512.147 541.852L514.307 542.356C513.839 543.544 513.695 543.904 513.335 544.696H519.887C521.147 544.696 521.759 544.66 522.407 544.516V546.784C521.687 546.64 521.039 546.604 519.815 546.604H519.131C518.303 549.304 517.799 550.276 516.395 552.112C517.943 552.868 518.483 553.192 520.139 554.236ZM516.971 546.604H512.363C511.787 547.612 511.427 548.152 510.527 549.556C512.471 550.312 513.155 550.564 514.523 551.212C515.783 549.664 516.359 548.62 516.971 546.604ZM515.099 533.392H519.851C521.111 533.392 521.651 533.356 522.263 533.248V535.408C521.615 535.3 521.039 535.264 519.815 535.264H516.287C517.331 536.596 518.735 537.712 520.679 538.792C520.067 539.368 520.031 539.404 519.275 540.52C517.151 538.936 516.215 537.928 514.955 535.84C515.063 536.848 515.099 537.28 515.099 537.928V539.944C515.099 540.484 515.135 540.988 515.243 541.456H512.903C513.011 540.988 513.047 540.484 513.047 539.98V537.964C513.047 537.28 513.083 536.884 513.191 535.876C511.355 539.008 509.951 540.448 506.423 542.968C505.919 542.212 505.523 541.78 504.839 541.24C507.395 539.728 508.727 538.72 510.167 537.136C510.671 536.56 510.887 536.344 511.607 535.264H508.295C506.963 535.264 506.207 535.3 505.451 535.444V533.212C506.207 533.356 506.963 533.392 508.367 533.392H513.047V528.568C513.047 527.632 513.011 526.984 512.867 526.156H515.279C515.135 526.948 515.099 527.56 515.099 528.568V533.392ZM506.531 527.704L508.367 526.876C509.591 528.64 510.239 529.756 511.067 531.628L509.123 532.42C508.367 530.476 507.719 529.324 506.531 527.704ZM519.707 526.768L521.651 527.668C520.427 530.08 519.779 531.196 518.519 532.816L516.719 531.916C518.123 530.188 518.915 528.82 519.707 526.768ZM555.707 530.008V528.928C555.707 527.74 555.635 526.84 555.491 525.94H558.335C558.191 526.876 558.119 527.74 558.119 528.928V530.008H568.559C570.035 530.008 571.151 529.972 572.411 529.828C572.267 530.656 572.231 531.448 572.231 532.6V534.652C572.231 535.516 572.303 536.344 572.411 537.172H569.999V532.096H544.655V537.172H542.243C542.351 536.344 542.423 535.516 542.423 534.652V532.6C542.423 531.484 542.387 530.764 542.243 529.828C543.503 529.972 544.619 530.008 546.095 530.008H555.707ZM545.555 544.876H555.995C555.995 543.58 555.959 542.824 555.815 541.996H557.615C560.207 540.736 561.611 539.8 563.843 537.856H550.055C548.651 537.856 547.607 537.928 546.527 538.108V535.588C547.463 535.732 548.471 535.804 550.055 535.804H564.023C565.355 535.804 566.075 535.768 566.687 535.66L567.911 537.136C567.443 537.532 567.407 537.568 566.543 538.288C563.879 540.556 561.827 541.924 558.407 543.76V544.876H569.099C570.647 544.876 571.871 544.804 572.879 544.66V547.18C571.835 547.036 570.611 546.964 569.099 546.964H558.407V555.172C558.407 557.368 557.435 558.124 554.591 558.124C553.151 558.124 551.711 558.052 550.055 557.872C549.947 556.972 549.803 556.468 549.407 555.46C550.847 555.748 553.079 556 554.483 556C555.635 556 555.995 555.748 555.995 554.956V546.964H545.555C544.043 546.964 542.819 547.036 541.775 547.18V544.66C542.855 544.804 544.007 544.876 545.555 544.876ZM579.791 558.916H576.587C579.611 555.892 580.799 554.236 582.059 551.464C583.355 548.584 584.003 545.596 584.003 542.32C584.003 539.044 583.355 536.056 582.059 533.176C580.799 530.404 579.611 528.748 576.587 525.724H579.791C582.491 528.82 583.607 530.548 584.795 533.464C585.983 536.344 586.523 539.188 586.523 542.32C586.523 545.452 585.983 548.296 584.795 551.176C583.607 554.092 582.491 555.82 579.791 558.916Z" fill="black"/>
<path d="M556.016 104.704L557.708 103.408C560.336 105.064 561.164 105.64 563 107.26C565.844 104.74 567.5 102.904 569.948 99.592H559.184C556.448 102.76 553.46 105.244 549.32 107.764C548.888 107.08 548.564 106.648 547.808 106.036C551.444 104.02 554.288 101.788 556.7 99.124C558.752 96.82 560.012 95.056 560.696 93.4L563.144 94.336C561.488 96.676 561.488 96.676 560.804 97.576H568.724C570.128 97.576 571.1 97.504 572.072 97.396L573.368 98.944C572.972 99.376 572.792 99.628 572.144 100.492C568.94 104.848 565.412 108.376 560.552 111.976H573.764C574.916 111.976 575.6 111.94 576.356 111.832C576.212 112.696 576.176 113.56 576.176 114.712V123.424C576.176 124.54 576.248 125.836 576.392 126.628H573.872V124.612H558.824V126.628H556.304C556.448 125.692 556.52 124.396 556.52 123.424V114.712C554.072 116.26 551.876 117.412 548.492 118.924C548.096 118.06 547.808 117.592 547.052 116.8C552.632 114.676 556.772 112.3 561.236 108.7C559.472 107.008 558.572 106.324 556.016 104.704ZM558.824 114.064V122.596H573.872V114.064H558.824ZM615.632 126.916H612.428C609.728 123.82 608.612 122.092 607.424 119.176C606.236 116.296 605.696 113.452 605.696 110.32C605.696 107.188 606.236 104.344 607.424 101.464C608.612 98.548 609.728 96.82 612.428 93.724H615.632C612.608 96.784 611.42 98.404 610.16 101.176C608.864 104.056 608.216 107.044 608.216 110.32C608.216 113.596 608.864 116.584 610.16 119.464C611.42 122.236 612.608 123.856 615.632 126.916ZM647.312 118.78H639.68C642.38 121.66 646.16 123.496 651.02 124.216C650.552 124.9 650.336 125.332 649.904 126.448C644.468 125.152 640.112 122.596 637.7 119.284C636.62 121.3 635.252 122.776 633.272 124.036C631.472 125.224 630.104 125.764 626.972 126.556C626.576 125.656 626.288 125.152 625.64 124.468C628.484 124 630.428 123.352 632.156 122.272C633.74 121.264 634.784 120.22 635.612 118.78H630.284C628.88 118.78 627.692 118.852 626.792 118.996V116.656C627.62 116.8 628.772 116.872 630.356 116.872H636.44C636.764 115.828 636.872 115.18 637.016 114.028H631.76C630.284 114.028 629.132 114.1 628.268 114.244V111.94C629.132 112.084 630.32 112.156 631.796 112.156H637.16C637.232 110.536 637.232 110.248 637.268 109.384H632.156C630.644 109.384 629.672 109.42 628.664 109.528C628.772 108.628 628.808 107.98 628.808 106.648V104.884C628.808 103.516 628.772 102.76 628.664 101.932C629.456 102.04 630.104 102.076 631.832 102.076H645.584C647.456 102.076 648.068 102.04 648.788 101.932C648.68 103.012 648.644 103.48 648.644 104.74V106.612C648.644 107.944 648.68 108.484 648.788 109.528C647.852 109.42 646.844 109.384 645.26 109.384H639.356C639.32 110.32 639.32 110.536 639.248 112.156H645.908C647.708 112.156 648.716 112.084 649.472 111.94V114.244C648.536 114.1 647.348 114.028 645.872 114.028H639.104C638.96 115.324 638.888 115.864 638.6 116.872H647.348C649.148 116.872 650.048 116.836 650.912 116.656V118.996C649.976 118.852 648.824 118.78 647.312 118.78ZM637.268 103.876H630.932V107.656H637.268V103.876ZM639.356 103.876V107.656H646.484V103.876H639.356ZM627.116 99.016L627.26 99.16L625.712 100.888C624.02 98.944 622.58 97.684 620.168 96.064L621.716 94.516C624.056 96.1 625.424 97.216 627.08 98.944V96.712C628.088 96.892 628.916 96.928 630.716 96.928H633.092V96.28C633.092 95.236 633.02 94.624 632.912 93.94H635.396C635.252 94.624 635.216 95.236 635.216 96.316V96.928H641.804V96.28C641.804 95.272 641.768 94.624 641.624 93.94H644.108C643.964 94.588 643.928 95.236 643.928 96.316V96.928H647.132C648.896 96.928 649.832 96.892 650.84 96.712V99.016C649.76 98.872 648.716 98.836 647.168 98.836H643.928V99.124C643.928 100.132 643.964 100.6 644.072 101.212H641.66C641.768 100.564 641.804 100.06 641.804 99.16V98.836H635.216V99.16C635.216 100.168 635.252 100.6 635.324 101.212H632.948C633.056 100.492 633.092 100.132 633.092 99.16V98.836H630.536C629.06 98.836 628.124 98.872 627.116 99.016ZM618.548 104.884L619.988 103.228C622.4 104.74 623.696 105.712 625.928 107.728L624.416 109.672C622.4 107.584 620.924 106.36 618.548 104.884ZM624.488 113.668L626.324 115.072C624.992 118.96 623.804 121.66 621.968 124.972C621.68 125.512 621.572 125.728 621.32 126.196L619.232 124.324C621.212 122.02 622.904 118.564 624.488 113.668ZM669.488 98.008V96.928C669.488 95.74 669.416 94.84 669.272 93.94H672.116C671.972 94.876 671.9 95.74 671.9 96.928V98.008H682.34C683.816 98.008 684.932 97.972 686.192 97.828C686.048 98.656 686.012 99.448 686.012 100.6V102.652C686.012 103.516 686.084 104.344 686.192 105.172H683.78V100.096H658.436V105.172H656.024C656.132 104.344 656.204 103.516 656.204 102.652V100.6C656.204 99.484 656.168 98.764 656.024 97.828C657.284 97.972 658.4 98.008 659.876 98.008H669.488ZM659.336 112.876H669.776C669.776 111.58 669.74 110.824 669.596 109.996H671.396C673.988 108.736 675.392 107.8 677.624 105.856H663.836C662.432 105.856 661.388 105.928 660.308 106.108V103.588C661.244 103.732 662.252 103.804 663.836 103.804H677.804C679.136 103.804 679.856 103.768 680.468 103.66L681.692 105.136C681.224 105.532 681.188 105.568 680.324 106.288C677.66 108.556 675.608 109.924 672.188 111.76V112.876H682.88C684.428 112.876 685.652 112.804 686.66 112.66V115.18C685.616 115.036 684.392 114.964 682.88 114.964H672.188V123.172C672.188 125.368 671.216 126.124 668.372 126.124C666.932 126.124 665.492 126.052 663.836 125.872C663.728 124.972 663.584 124.468 663.188 123.46C664.628 123.748 666.86 124 668.264 124C669.416 124 669.776 123.748 669.776 122.956V114.964H659.336C657.824 114.964 656.6 115.036 655.556 115.18V112.66C656.636 112.804 657.788 112.876 659.336 112.876ZM693.572 126.916H690.368C693.392 123.892 694.58 122.236 695.84 119.464C697.136 116.584 697.784 113.596 697.784 110.32C697.784 107.044 697.136 104.056 695.84 101.176C694.58 98.404 693.392 96.748 690.368 93.724H693.572C696.272 96.82 697.388 98.548 698.576 101.464C699.764 104.344 700.304 107.188 700.304 110.32C700.304 113.452 699.764 116.296 698.576 119.176C697.388 122.092 696.272 123.82 693.572 126.916Z" fill="black"/>
<rect x="349" y="296" width="80" height="40" rx="10" fill="#E24040"/>
<path d="M373.784 321.664V323.824C373.784 324.64 374.456 324.832 377.456 324.832C378.944 324.832 380.048 324.736 380.6 324.568C381.224 324.376 381.44 324.04 381.656 322.768C381.824 321.808 381.872 321.16 381.92 319.456C382.544 319.792 382.904 319.936 383.504 320.056C383.192 323.824 382.808 325.168 381.872 325.696C381.176 326.104 379.88 326.248 377.264 326.248C373.184 326.248 372.248 325.864 372.248 324.184V322.792C370.376 324.184 369.416 324.808 367.184 326.008C366.824 325.408 366.584 325.12 366.008 324.664C368.528 323.512 369.992 322.648 372.248 320.92V312.448C372.248 311.68 372.2 311.152 372.08 310.168H373.952C373.832 310.864 373.784 311.536 373.784 312.424V319.768C375.728 318.016 376.928 316.72 378.584 314.464C380.72 311.56 382.184 308.848 382.712 306.688L384.44 307.408C384.176 307.888 384.104 308.032 383.648 308.992C381.944 312.568 380 315.424 377.12 318.544C376.04 319.744 375.512 320.224 373.784 321.664ZM372.152 306.088L373.088 304.888C376.208 306.136 377.792 306.976 380.24 308.608L379.256 309.976C377.072 308.32 375.32 307.36 372.152 306.088ZM368.6 312.592L370.16 313.024C369.392 316.96 368.816 318.808 367.352 321.952L365.888 321.088C366.704 319.576 367.016 318.88 367.496 317.368C368.072 315.616 368.288 314.656 368.6 312.592ZM382.88 313.528L384.224 312.784C385.88 315.448 386.984 317.824 388.208 321.424L386.696 322.312C386.048 320.056 385.64 318.904 384.848 317.128C384.224 315.688 383.84 315.016 382.88 313.528ZM403.736 307.312H400.496C399.416 307.312 398.84 307.336 398.192 307.432V305.8C398.864 305.896 399.608 305.944 400.592 305.944H409.208C410.192 305.944 410.984 305.896 411.656 305.8V307.432C411.152 307.336 410.576 307.312 409.28 307.312H405.296C404.96 308.248 404.6 309.088 404.24 309.808H408.224C409.28 309.808 409.904 309.784 410.432 309.712C410.36 310.312 410.336 310.96 410.336 311.992V319.72C410.336 320.728 410.36 321.424 410.432 322.072C409.808 322 409.136 321.976 408.272 321.976H401C400.136 321.976 399.584 322 398.912 322.072C398.984 321.376 399.008 320.656 399.008 319.792V311.872C399.008 311.032 398.984 310.384 398.912 309.712C399.488 309.784 399.896 309.808 400.952 309.808H402.68C403.136 308.968 403.448 308.224 403.736 307.312ZM400.472 311.08V313.384H408.872V311.08H400.472ZM400.472 314.632V316.936H408.872V314.632H400.472ZM400.472 318.184V320.68H408.872V318.184H400.472ZM396.368 305.152L397.76 306.184C397.544 306.376 397.544 306.376 397.112 306.808C395.072 308.8 393.176 310.216 390.944 311.416C390.728 310.912 390.368 310.36 390.08 310C392.216 309.04 393.704 308.008 395.336 306.376C395.864 305.848 396.104 305.584 396.368 305.152ZM396.848 318.136L398.216 319.24C395.48 322.528 393.656 324.136 390.776 325.792C390.512 325.216 390.248 324.832 389.84 324.376C392.12 323.296 393.728 322.024 395.672 319.792C396.248 319.144 396.536 318.712 396.848 318.136ZM405.656 323.104L406.856 322.264C408.536 323.824 409.712 324.52 412.136 325.36C411.776 325.768 411.512 326.2 411.272 326.68C408.8 325.672 407.408 324.808 405.656 323.104ZM396.68 311.368L397.976 312.472C397.64 312.784 397.64 312.784 396.824 313.6C394.856 315.544 392.96 316.936 390.824 318.016C390.584 317.44 390.416 317.152 390.008 316.576C392.144 315.64 393.56 314.656 395.48 312.784C396.104 312.16 396.392 311.8 396.68 311.368ZM401.6 322.336L402.68 323.248C400.712 324.976 399.44 325.72 396.824 326.728C396.608 326.32 396.32 325.912 395.936 325.48C398.576 324.616 399.872 323.896 401.6 322.336Z" fill="white"/>
<rect x="612" y="522" width="80" height="40" rx="10" fill="#E24040"/>
<path d="M636.784 547.664V549.824C636.784 550.64 637.456 550.832 640.456 550.832C641.944 550.832 643.048 550.736 643.6 550.568C644.224 550.376 644.44 550.04 644.656 548.768C644.824 547.808 644.872 547.16 644.92 545.456C645.544 545.792 645.904 545.936 646.504 546.056C646.192 549.824 645.808 551.168 644.872 551.696C644.176 552.104 642.88 552.248 640.264 552.248C636.184 552.248 635.248 551.864 635.248 550.184V548.792C633.376 550.184 632.416 550.808 630.184 552.008C629.824 551.408 629.584 551.12 629.008 550.664C631.528 549.512 632.992 548.648 635.248 546.92V538.448C635.248 537.68 635.2 537.152 635.08 536.168H636.952C636.832 536.864 636.784 537.536 636.784 538.424V545.768C638.728 544.016 639.928 542.72 641.584 540.464C643.72 537.56 645.184 534.848 645.712 532.688L647.44 533.408C647.176 533.888 647.104 534.032 646.648 534.992C644.944 538.568 643 541.424 640.12 544.544C639.04 545.744 638.512 546.224 636.784 547.664ZM635.152 532.088L636.088 530.888C639.208 532.136 640.792 532.976 643.24 534.608L642.256 535.976C640.072 534.32 638.32 533.36 635.152 532.088ZM631.6 538.592L633.16 539.024C632.392 542.96 631.816 544.808 630.352 547.952L628.888 547.088C629.704 545.576 630.016 544.88 630.496 543.368C631.072 541.616 631.288 540.656 631.6 538.592ZM645.88 539.528L647.224 538.784C648.88 541.448 649.984 543.824 651.208 547.424L649.696 548.312C649.048 546.056 648.64 544.904 647.848 543.128C647.224 541.688 646.84 541.016 645.88 539.528ZM666.736 533.312H663.496C662.416 533.312 661.84 533.336 661.192 533.432V531.8C661.864 531.896 662.608 531.944 663.592 531.944H672.208C673.192 531.944 673.984 531.896 674.656 531.8V533.432C674.152 533.336 673.576 533.312 672.28 533.312H668.296C667.96 534.248 667.6 535.088 667.24 535.808H671.224C672.28 535.808 672.904 535.784 673.432 535.712C673.36 536.312 673.336 536.96 673.336 537.992V545.72C673.336 546.728 673.36 547.424 673.432 548.072C672.808 548 672.136 547.976 671.272 547.976H664C663.136 547.976 662.584 548 661.912 548.072C661.984 547.376 662.008 546.656 662.008 545.792V537.872C662.008 537.032 661.984 536.384 661.912 535.712C662.488 535.784 662.896 535.808 663.952 535.808H665.68C666.136 534.968 666.448 534.224 666.736 533.312ZM663.472 537.08V539.384H671.872V537.08H663.472ZM663.472 540.632V542.936H671.872V540.632H663.472ZM663.472 544.184V546.68H671.872V544.184H663.472ZM659.368 531.152L660.76 532.184C660.544 532.376 660.544 532.376 660.112 532.808C658.072 534.8 656.176 536.216 653.944 537.416C653.728 536.912 653.368 536.36 653.08 536C655.216 535.04 656.704 534.008 658.336 532.376C658.864 531.848 659.104 531.584 659.368 531.152ZM659.848 544.136L661.216 545.24C658.48 548.528 656.656 550.136 653.776 551.792C653.512 551.216 653.248 550.832 652.84 550.376C655.12 549.296 656.728 548.024 658.672 545.792C659.248 545.144 659.536 544.712 659.848 544.136ZM668.656 549.104L669.856 548.264C671.536 549.824 672.712 550.52 675.136 551.36C674.776 551.768 674.512 552.2 674.272 552.68C671.8 551.672 670.408 550.808 668.656 549.104ZM659.68 537.368L660.976 538.472C660.64 538.784 660.64 538.784 659.824 539.6C657.856 541.544 655.96 542.936 653.824 544.016C653.584 543.44 653.416 543.152 653.008 542.576C655.144 541.64 656.56 540.656 658.48 538.784C659.104 538.16 659.392 537.8 659.68 537.368ZM664.6 548.336L665.68 549.248C663.712 550.976 662.44 551.72 659.824 552.728C659.608 552.32 659.32 551.912 658.936 551.48C661.576 550.616 662.872 549.896 664.6 548.336Z" fill="white"/>
</svg>
